<?xml version="1.0" encoding="utf-8"?>
<!-- Generator: Adobe Illustrator 27.5.0, SVG Export Plug-In . SVG Version: 6.00 Build 0)  -->
<svg version="1.1" id="Layer_1" xmlns="http://www.w3.org/2000/svg" xmlns:xlink="http://www.w3.org/1999/xlink" x="0px" y="0px"
	 viewBox="0 0 9000 4000" style="enable-background:new 0 0 9000 4000;" xml:space="preserve">
<rect style="fill-rule:evenodd;clip-rule:evenodd;fill:#F2F2F2;" width="9000" height="4000"/>
<path style="fill-rule:evenodd;clip-rule:evenodd;fill:#ACBAC9;" d="M9000,1472.847
	c-381.047,77.529-876.94,275.813-1439.756,734.635c-1150.017,937.513-1699.225,862.516-2628.066,735.677
	c-115.01-15.706-235.833-32.209-363.609-47.604c-15.667-1.886-31.258-3.812-46.793-5.771l-24.066-3.587
	c-29.407-4.543-58.616-8.973-87.625-13.256c-29.407-4.543-58.613-8.978-87.623-13.256c-29.407-4.543-58.615-8.978-87.622-13.256
	c-29.407-4.543-58.616-8.978-87.625-13.256c-29.412-4.543-58.613-8.971-87.622-13.256c-29.415-4.547-58.616-8.971-87.622-13.256
	c-29.414-4.548-58.615-8.971-87.625-13.256c-29.412-4.54-58.613-8.978-87.622-13.256
	c-781.202-120.715-1416.81-161.007-2126.621,538.052c-344.475,339.255-801.624,544.106-1252.994,663.461
	c-24.054,6.361-48.089,12.452-72.096,18.335h27.493c15.421-3.885,30.848-7.851,46.29-11.934
	c452.346-119.614,910.543-324.971,1255.955-665.149c567.71-559.109,1088.196-643.695,1674.38-593.09
	c-552.262-34.522-1050.266,68.694-1591.406,601.632c-344.475,339.255-801.624,544.106-1252.994,663.459
	c-6.501,1.722-12.996,3.402-19.492,5.082h26.12c450.739-119.799,906.858-324.891,1251.014-663.827
	c567.71-559.109,1088.196-643.698,1674.382-593.092c-552.264-34.52-1050.275,68.697-1591.408,601.634
	C1508.598,3676.358,1064.175,3879.55,622.725,4000h24.872c434.768-121.467,870.619-323.813,1202.402-650.571
	c567.71-559.109,1088.194-643.698,1674.38-593.092c-552.269-34.519-1050.275,68.697-1591.406,601.634
	C1608.281,3677.74,1183.482,3878.088,757.778,4000h23.803c419.261-122.748,836.05-322.173,1156.04-637.316
	c567.71-559.102,1088.196-643.697,1674.38-593.092c-552.269-34.526-1050.272,68.697-1591.406,601.634
	c-313.182,308.44-719.494,505.775-1129.934,628.774h22.826c404.21-123.683,803.037-320.015,1111.756-624.06
	c567.71-559.109,1088.196-643.69,1674.382-593.092c-552.271-34.52-1050.268,68.697-1591.408,601.634
	C1806.054,3682.07,1417.182,3876.237,1021.57,4000h21.964c389.6-124.309,771.418-317.398,1069.334-610.804
	c567.71-559.109,1088.194-643.69,1674.38-593.092c-552.269-34.52-1050.268,68.704-1591.406,601.632
	C1904.25,3684.912,1531.921,3875.771,1150.708,4000h21.158c375.403-124.635,741.097-314.376,1028.625-597.548
	c567.71-559.109,1088.201-643.698,1674.38-593.092c-552.269-34.526-1050.273,68.697-1591.406,601.632
	c-281.417,277.156-638.047,464.594-1005.274,589.009h20.455c361.608-124.707,711.94-310.97,989.466-584.292
	c567.717-559.116,1088.196-643.698,1674.382-593.092c-552.271-34.526-1050.275,68.704-1591.408,601.632
	c-271.601,267.484-613.248,451.404-966.874,575.753h19.797c348.181-124.534,683.871-307.238,951.728-571.037
	c567.708-559.116,1088.194-643.69,1674.38-593.092c-552.269-34.526-1050.275,68.697-1591.406,601.632
	c-262.105,258.134-589.447,438.448-929.846,562.497h19.214c335.111-124.128,656.78-303.201,915.28-557.781
	c567.71-559.116,1088.201-643.69,1674.38-593.092c-552.276-34.526-1050.272,68.697-1591.406,601.632
	c-252.907,249.077-566.555,425.703-894.047,549.241h18.588c322.398-123.524,630.667-298.864,880.107-544.525
	c567.71-559.109,1088.196-643.698,1674.382-593.092c-552.271-34.52-1050.275,68.701-1591.408,601.632
	c-244.007,240.31-544.551,413.164-859.535,535.985h18.106c310.026-122.716,605.426-294.26,846.08-531.269
	c567.708-559.109,1088.194-643.698,1674.38-593.092c-552.269-34.526-1050.275,68.697-1591.406,601.632
	c-235.355,231.789-523.309,400.824-826.077,522.729h17.644c297.955-121.725,580.98-289.434,813.081-518.013
	c567.71-559.109,1088.194-643.698,1674.38-593.092c-552.269-34.515-1050.28,68.701-1591.406,601.632
	c-226.935,223.5-502.774,388.658-793.647,509.474h17.126c286.22-120.563,557.369-284.353,781.169-504.758
	c567.71-559.109,1088.196-643.697,1674.382-593.092c-552.271-34.522-1050.275,68.694-1591.408,601.632
	c-218.751,215.438-482.949,376.651-762.241,496.218h16.768c274.757-119.227,534.433-279.079,750.124-491.502
	c567.708-559.109,1088.194-643.698,1674.38-593.092c-552.269-34.522-1050.275,68.694-1591.406,601.632
	c-210.764,207.569-463.719,364.823-731.707,482.962h16.29c263.614-117.746,512.258-273.587,720.065-478.246
	c567.71-559.109,1088.194-643.698,1674.38-593.092c-552.269-34.522-1050.275,68.695-1591.406,601.632
	c-202.979,199.905-445.088,353.129-702.079,469.707h15.964c252.734-116.114,490.666-267.929,690.763-464.99
	c567.71-559.109,1088.196-643.697,1674.382-593.092c-552.271-34.522-1050.275,68.694-1591.407,601.632
	c-195.374,192.42-427.004,341.586-673.263,456.451h15.573c242.128-114.354,469.766-262.079,662.338-451.735
	c567.71-559.109,1088.196-643.697,1674.382-593.092c-552.269-34.522-1050.275,68.694-1591.406,601.632
	c-187.945,185.094-409.433,330.176-645.214,443.195h15.217c231.782-112.447,449.43-256.068,634.645-438.479
	c567.71-559.109,1088.194-643.698,1674.38-593.092c-552.269-34.522-1050.274,68.694-1591.406,601.632
	c-180.685,177.941-392.365,318.893-617.95,429.939h14.957c221.679-110.416,429.633-249.913,607.642-425.225
	c567.71-559.109,1088.196-643.695,1674.38-593.09c-552.269-34.522-1050.272,68.694-1591.406,601.632
	c-173.565,170.936-375.74,307.737-591.366,416.683h14.605c211.838-108.263,410.447-243.597,581.409-411.969
	c567.71-559.109,1088.196-643.695,1674.382-593.09c-552.271-34.515-1050.275,68.701-1591.408,601.632
	c-166.592,164.069-359.53,296.697-565.431,403.427h14.273c202.234-106,391.747-237.142,555.809-398.714
	c567.71-559.109,1088.194-643.69,1674.379-593.09c-552.269-34.514-1050.274,68.701-1591.406,601.632
	c-159.772,157.347-343.791,285.768-540.221,390.172h14.064c192.853-103.628,373.524-230.559,530.806-385.458
	c567.71-559.109,1088.201-643.69,1674.38-593.092c-552.262-34.52-1050.266,68.697-1591.406,601.634
	c-153.077,150.752-328.417,274.956-515.596,376.916h13.825c183.695-101.145,355.786-223.847,506.419-372.202
	c620.886-611.481,1185.283-655.419,1840.907-575.624c26.532,4.077,53.236,8.113,80.132,12.098
	c28.99,4.47,58.196,8.894,87.625,13.256c28.987,4.463,58.196,8.893,87.622,13.256c28.988,4.463,58.197,8.893,87.623,13.256
	c28.988,4.47,58.196,8.894,87.625,13.256c28.988,4.47,58.196,8.894,87.623,13.256c28.988,4.47,58.196,8.893,87.622,13.256
	c28.988,4.47,58.189,8.894,87.625,13.256c115.907,17.857,235.279,35.098,358.632,49.961
	c128.632,15.493,248.983,31.931,363.515,47.576c759.779,103.755,1266.083,172.77,2053.37-316.501v-7.844
	c-599.235,373.144-1035.318,422.468-1544.068,379.003c496.417,31.696,934.979-40.505,1544.068-440.388v-7.954
	c-645.099,424.326-1098.469,480.636-1631.69,435.086c519.907,33.205,976.352-47.592,1631.69-499.385v-8.05
	c-692.377,478.181-1162.276,541.77-1719.313,494.18c542.778,34.665,1016.343-54.822,1719.313-561.103v-8.242
	c-741.028,534.566-1226.721,605.657-1806.938,556.089c565.035,36.087,1055.075-62.453,1806.938-625.533v-8.289
	c-791.025,593.343-1291.784,672.062-1894.56,620.566c586.683,37.469,1092.531-70.21,1894.56-692.358v-8.366
	c-842.313,654.362-1357.445,740.843-1982.182,687.469c607.761,38.816,1128.779-78.127,1982.182-761.425v-8.46
	c-894.818,717.474-1423.691,811.829-2069.807,756.629c620.495,39.627,1150.502-82.988,2036.19-805.011
	c11.236-9.163,22.435-18.157,33.617-27.109v-8.519c-12.558,10.034-25.157,20.195-37.787,30.487
	c-925.235,754.272-1461.613,853.112-2119.642,796.896c620.495,39.626,1150.502-82.988,2036.19-805.011
	c40.77-33.238,81.193-65.103,121.239-95.651v-8.261c-41.422,31.532-83.22,64.379-125.41,98.772
	c-925.235,754.272-1461.612,853.112-2119.641,796.896c620.492,39.627,1150.501-82.988,2036.19-805.011
	c70.721-57.65,140.359-111.125,208.861-160.813v-8.155c-69.852,50.551-140.877,105.008-213.034,163.828
	c-925.235,754.272-1461.613,853.112-2119.642,796.896c620.495,39.627,1150.504-82.988,2036.189-805.009
	c101.104-82.423,200.004-156.326,296.486-222.71v-8.104c-97.804,67.144-198.118,142.082-300.657,225.674
	c-925.234,754.27-1461.612,853.11-2119.641,796.893c620.495,39.627,1150.501-82.988,2036.189-805.009
	c131.95-107.574,260.172-200.708,384.108-281.391v-7.884c-125.251,81.341-254.873,175.378-388.279,284.135
	c-925.235,754.27-1461.612,853.11-2119.641,796.893c620.492,39.627,1150.501-82.988,2036.188-805.009
	c163.306-133.13,320.933-244.267,471.731-336.879v-7.722c-152.102,93.175-311.129,205.13-475.904,339.461
	c-925.234,754.27-1461.612,853.11-2119.641,796.893c620.495,39.627,1150.504-82.988,2036.189-805.009
	c195.229-159.156,382.33-286.824,559.355-389.024v-7.619c-178.307,102.68-366.816,231.137-563.526,391.503
	c-925.235,754.27-1461.612,853.11-2119.641,796.893c620.494,39.627,1150.501-82.988,2036.189-805.009
	c227.75-185.666,444.443-328.518,646.978-438.003v-7.523c-203.797,109.877-421.917,253.512-651.148,440.386
	c-925.235,754.27-1461.612,853.11-2119.642,796.893c620.493,39.627,1150.502-82.988,2036.189-805.009
	c260.93-212.716,507.383-369.292,734.601-483.794v-7.338c-228.474,114.818-476.334,272.048-738.773,485.991
	c-925.235,754.27-1461.611,853.11-2119.641,796.893c620.494,39.629,1150.503-82.988,2036.189-805.009
	c294.86-240.375,571.211-409.041,822.225-526.309v-7.284c-252.249,117.526-530.035,286.855-826.395,528.453
	c-925.235,754.272-1461.612,853.112-2119.642,796.893c620.495,39.629,1150.502-82.986,2036.189-805.009
	c329.58-268.679,636.053-447.817,909.847-565.665v-7.153c-275.015,118.046-582.925,297.761-914.017,567.677
	c-925.235,754.272-1461.613,853.112-2119.642,796.893c620.492,39.629,1150.502-82.986,2036.189-805.009
	c365.203-297.721,702.046-485.5,997.469-601.751v-7.04c-296.639,116.4-634.917,304.689-1001.64,603.651
	c-925.235,754.272-1461.612,853.112-2119.641,796.894c620.492,39.629,1150.501-82.986,2036.187-805.009
	c401.842-327.588,769.329-522.06,1085.094-634.598v-6.96c-316.961,112.639-685.901,307.589-1089.264,636.418
	c-925.235,754.272-1461.612,853.112-2119.642,796.894c620.495,39.629,1150.502-82.986,2036.189-805.009
	c439.596-358.368,838.09-557.455,1172.716-664.211v-6.888c-335.82,106.836-735.803,306.375-1176.887,665.959
	c-925.242,754.265-1461.598,853.119-2119.641,796.893c620.492,39.629,1150.501-82.986,2036.189-805.009
	c478.637-390.193,908.544-591.557,1260.338-690.498v-6.799c-352.975,98.978-784.369,300.743-1264.509,692.157
	c-925.235,754.265-1461.608,853.119-2119.642,796.894c620.493,39.629,1150.502-82.986,2036.187-805.009
	c519.165-423.224,980.981-624.31,1347.963-713.474v-6.728c-368.163,89.185-831.496,290.636-1352.134,715.063
	c-925.234,754.272-1461.612,853.112-2119.641,796.896c620.488,39.627,1150.501-82.981,2036.189-805.011
	C8125.79,1754.984,8620.142,1557.051,9000,1479.55V1472.847z"/>
<path style="fill-rule:evenodd;clip-rule:evenodd;fill:#ACBAC9;" d="M2602.803,2802.725c1.321,22.248,3.753,43.673,7.258,64.306
	 M6631.603,3177.53c4.376,7.924,8.999,16.391,13.82,25.324 M6645.423,3202.854c4.296,7.956,8.626,16.044,12.977,24.293
	 M6658.4,3227.146c4.235,8.029,8.565,16.33,12.982,24.951 M6671.382,3252.098c4.371,8.526,8.408,16.51,12.14,23.993
	 M6683.522,3276.091c3.594,7.207,7.685,15.5,12.112,24.567 M6695.635,3300.658c3.84,7.855,7.67,15.786,11.485,23.761
	 M6707.12,3324.419c3.844,8.043,7.696,16.159,11.494,24.279 M6718.614,3348.698c3.673,7.832,7.326,15.706,10.931,23.55
	 M6729.545,3372.248h0.007c3.678,8.003,7.338,16.032,10.943,24.047 M6740.496,3396.295c3.536,7.851,7.022,15.648,10.447,23.384
	 M6750.942,3419.679c3.102,7.007,6.57,14.91,10.44,23.829 M6761.382,3443.508c3.608,8.322,7.021,16.21,10.002,23.21
	 M6771.384,3466.718l6.023,14.153 M6856.815,3681.611c-3.233-8.699-6.48-17.34-9.716-25.919l8.507,22.693
	c12.068,32.408,24.134,65.653,36.183,99.763C6880.066,3744.954,6868.413,3712.777,6856.815,3681.611z M6777.407,3480.871
	l-3.418-8.09 M6773.989,3472.781c-3.362-7.93-6.674-15.674-9.903-23.145 M6764.085,3449.637h-0.014 M6764.072,3449.637
	c-3.504-8.123-6.965-16.051-10.346-23.742 M6753.726,3425.894c-3.707-8.434-7.164-16.217-10.346-23.316 M6743.38,3402.578
	c-3.653-8.163-7.279-16.145-10.852-23.96 M6732.528,3378.618c-3.062-6.682-6.729-14.598-10.866-23.492 M6721.662,3355.126
	c-3.819-8.2-7.631-16.283-11.396-24.199 M6710.266,3330.927c-4.004-8.416-7.823-16.358-11.396-23.703 M6698.87,3307.225
	c-4.004-8.249-8.017-16.423-12.006-24.473 M6686.864,3282.751c-3.826-7.71-7.818-15.646-12.007-23.888 M6674.856,3258.864
	c-4.716-9.263-8.966-17.513-12.778-24.825 M6662.078,3234.039c-4.243-8.127-8.507-16.191-12.792-24.185 M6649.287,3209.854
	c-8.826-16.477-17.777-32.715-26.842-48.715 M5772.672,2704.065v0.007l-7.218,2.071l5.658-1.607h0.026l7.438-2.071v-0.007
	l2.465-0.691l0.04-0.014l6.806-1.832h0.026l6.801-1.781c4.716-1.214,9.292-2.383,13.646-3.453c4.564-1.122,9.119-2.212,13.622-3.24
	h0.026l9.896-2.212l0.021-0.014l9.868-2.097h0.014l5.072-1.064l0.028-0.012c3.439-0.684,7.291-1.429,11.555-2.212
	c4.21-0.771,8.029-1.455,11.515-2.052c3.254-0.558,6.96-1.162,10.938-1.781c4.058-0.63,7.664-1.169,10.904-1.633
	c2.936-0.419,6.136-0.858,9.664-1.31c3.592-0.464,6.787-0.862,9.662-1.195h0.025l1.408-0.152c3.076-0.347,6.37-0.698,9.835-1.042
	h0.028l9.774-0.904l0.028-0.012l7.457-0.618h0.054l7.451-0.518h0.068l3.566-0.18c2.834-0.159,5.751-0.319,8.786-0.445
	c2.841-0.124,5.798-0.239,8.774-0.323h0.012l8.235-0.201h0.028c2.723-0.044,5.499-0.08,8.268-0.084h0.04l2.251,0.026l5.292,0.047
	h0.026l5.299,0.092l2.364,0.035h0.068l5.824,0.185h0.033l5.824,0.253l2.477,0.112h0.028l6.546,0.352h0.04l6.544,0.426h0.065
	l2.226,0.185l0.026,0.014h0.019v-0.007c3.036,0.225,6.03,0.445,9.657,0.79l1.382,0.127h0.011l2.791,0.272h0.066l3.626,0.426h0.014
	l2.603,0.312l4.098,0.485l1.328,0.152h0.026l3.707,0.438l0.033,0.014l3.414,0.445l0.08,0.012l4.032,0.633v-0.014l2.158,0.333
	l0.012,0.012l3.633,0.565l1.024,0.159l2.889,0.445v-0.007l0.398,0.061l0.026,0.014l1.315,0.204h0.039
	c46.848,7.93,93.15,22.362,139.005,44.451c45.824,22.067,91.238,51.814,136.363,90.391c11.609,9.922,23.217,20.441,34.801,31.565
	c11.494,11.037,23.063,22.772,34.679,35.192h0.014c8.586,9.184,17.22,18.776,25.867,28.735
	c8.685,10.002,17.313,20.303,25.839,30.876c7.033,8.72,14.146,17.799,21.298,27.2c7.026,9.226,14.14,18.837,21.292,28.751
	c6.201,8.594,12.386,17.353,18.515,26.251c6.089,8.839,12.26,17.998,18.501,27.453l0.007-0.005
	c5.712,8.652,11.264,17.227,16.636,25.694c5.365,8.46,10.857,17.267,16.449,26.425c5.089,8.329,10.135,16.683,15.102,25.05
	c4.55,7.67,9.071,15.395,13.527,23.159c-3.06-5.353-6.096-10.594-9.104-15.728c-4.728-8.087-9.676-16.397-14.816-24.89
	c-5.426-8.98-10.831-17.773-16.17-26.32c-5.545-8.865-10.953-17.365-16.166-25.368c-6.057-9.317-12.061-18.342-17.977-27.062
	c-5.943-8.753-11.988-17.461-18.124-26.102c-6.946-9.788-13.853-19.244-20.694-28.369c-6.834-9.118-13.752-18.098-20.713-26.91
	c-8.254-10.461-16.463-20.542-24.6-30.19c-8.174-9.716-16.388-19.127-24.612-28.198c-10.632-11.735-21.39-23.011-32.228-33.831
	c-10.754-10.732-21.531-20.94-32.303-30.642c-19.232-17.321-38.512-33.027-57.805-47.152
	c-19.266-14.099-38.638-26.689-58.103-37.834c-23.105-13.223-46.269-24.373-69.486-33.61c-23.283-9.259-46.674-16.629-70.163-22.269
	c-3.407-0.815-7.186-1.673-11.25-2.549c-3.758-0.804-7.526-1.574-11.27-2.291l-0.34-0.068h-0.014l-1.731-0.33h-0.014l-0.949-0.188
	v-0.005l-3.142-0.6l-0.832-0.159v0.007l-5.054-0.895l-0.311-0.047l-0.08-0.014l-5.314-0.818h-0.011l-1.987-0.298l-0.119-0.021
	l-0.152-0.033l-2.291-0.365h-0.014c-2.085-0.33-4.203-0.67-6.375-0.963l-0.106-0.012l-0.08-0.014
	c-2.165-0.279-4.629-0.565-7.094-0.844l-3.194-0.358h-0.014l-1.328-0.152c-3.545-0.412-7.026-0.811-10.061-1.096v0.007l-4.843-0.394
	l-2.343-0.192l-5.553-0.438v-0.007l-5.766-0.365l-5.784-0.312l-2.111-0.098l-7.318-0.307l-7.299-0.206l-5.386-0.084l-5.386-0.04
	l-4.615-0.035l-3.201,0.068h-0.014l-6.614,0.105l-6.621,0.166c-2.77,0.094-5.632,0.213-8.594,0.352l-8.647,0.471
	c-2.831,0.166-5.806,0.372-8.945,0.604h-0.014c-2.795,0.199-5.846,0.459-8.978,0.724v-0.012l-9.238,0.869v0.007l-9.292,0.989v0.007
	l-7.254,0.865v-0.007l-7.204,0.923v0.007l-4.636,0.637v0.007l-9.742,1.434c-3.454,0.525-6.722,1.05-9.716,1.546l-9.802,1.694v-0.007
	l-9.749,1.802v0.005l-9.599,1.893v-0.007l-9.568,2.001l-4.159,0.888v-0.005l-6.621,1.474v0.007l-6.654,1.534v0.005l-4.09,0.97
	h-0.015l-3.127,0.738l-4.962,1.176v-0.007c-5.463,1.354-11.11,2.816-16.88,4.355
	C5783.93,2700.924,5778.244,2702.491,5772.672,2704.065z M5703.798,2725.662l-1.521,0.532l1.532-0.525l8.655-2.896l3.182-1.057
	v-0.005l3.114-1.05l0.897-0.3l-1.701,0.558v-0.007l-7.052,2.338v0.007l-7.106,2.411V2725.662z M5692.761,2729.506v0.007l-0.56,0.199
	l1.527-0.536L5692.761,2729.506z M5600.275,2764.977v0.007l-0.97,0.398l7.453-3.048c4.814-1.966,10.573-4.283,16.934-6.82
	l3.062-1.216l0.014-0.011l10.273-4.046h0.015l10.252-3.971l0.014-0.014l10.168-3.87h0.025l10.135-3.786l0.012-0.014l5.693-2.092
	h0.012l10.779-3.917l-2.498,0.89l-7.583,2.748v0.007l-7.638,2.816v-0.007c-3.971,1.476-8.282,3.088-13.792,5.194h-0.014
	c-4.795,1.82-9.437,3.613-13.839,5.321v0.005l-10.726,4.217v-0.005l-10.838,4.323v0.007l-8.476,3.425v-0.005L5600.275,2764.977z
	 M5584.974,2771.333l-7.226,3.055l9.564-4.018l-2.338,0.97V2771.333z M5548.156,2787.072v0.007l-5.883,2.584h0.004l13.024-5.665
	h0.014c6.965-3.015,13.806-5.951,20.488-8.781v-0.007l-6.164,2.605v0.005l-5.007,2.139v-0.007L5548.156,2787.072z M5344,2881.517
	v0.005l-7.052,3.362h0.012l12.579-5.983v-0.007l7.207-3.435h0.014l25.382-12.059l11.768-5.578l14.697-6.947h0.011l26.95-12.665
	l2.929-1.375l0.014-0.014l25.256-11.733h0.014l19.743-9.072l9.277-4.238l0.014-0.014l15.32-6.932h0.014l15.261-6.834h0.014
	l5.771-2.563v-0.014l11.728-5.166l-9.336,4.098v0.007l-8.329,3.692v-0.007l-11.634,5.206v0.007l-11.696,5.274v-0.007l-22.168,10.102
	l-7.857,3.613v0.005l-14.517,6.715v0.007l-14.598,6.794l-0.007-0.014l-7.921,3.707l-20.064,9.423v0.007l-24.467,11.569l-2.947,1.401
	l-26.465,12.572L5344,2881.517z M5209.114,2945.205l-9.311,4.315l14.842-6.867v0.007l22.592-10.552l22.812-10.719l0.764-0.358
	v-0.007l22.76-10.759l21.662-10.287l2.165-1.029l24.288-11.557v-0.007l1.029-0.49h-0.007l-25.31,12.04l-7.729,3.671l-17.407,8.263
	l-24.619,11.635l-2.422,1.144h-0.014l-21.882,10.273v0.014l-24.202,11.269H5209.114z M5173.563,2961.574l-9.198,4.184l6.389-2.896
	v0.007l21.65-9.922v-0.007l4.895-2.263h-0.007l-11.854,5.452l-11.859,5.433L5173.563,2961.574z M5091.007,2998.366l-11.342,4.894
	l7.497-3.226l0.007,0.012c6.197-2.676,12.977-5.637,20.329-8.858v-0.007l10.299-4.536l10.275-4.555v0.005l21.151-9.477l0.703-0.319
	h-0.012l-11.782,5.288l-11.703,5.22l-0.012,0.012l-11.695,5.175h-0.014l-11.82,5.192l-11.869,5.168L5091.007,2998.366z
	 M5055.702,3013.456v0.004l11.384-4.807v-0.007l10.049-4.29v-0.007l2.19-0.942h-0.011l-11.729,5.021h-0.014L5055.702,3013.456z
	 M5052.86,3014.658l-7.902,3.32l2.954-1.235v0.007L5052.86,3014.658z M4996.47,3037.775l-1.455,0.579v0.005L4996.47,3037.775z
	 M5011.612,3031.69l-0.518,0.213l0.518-0.206V3031.69z M4981.031,3043.885l-10.161,3.964l7.609-2.969L4981.031,3043.885z
	 M4955.41,3053.786l-0.014,0.014l13.6-5.227h-0.019L4955.41,3053.786z M4926.712,3064.539l-0.007,0.005
	c9.557-3.519,19.081-7.085,28.557-10.69l-13.495,5.093h-0.012L4926.712,3064.539z M4845.725,3092.763l-2.207,0.724l5.665-1.86
	L4845.725,3092.763z M4816.423,3102.154h-0.014 M4816.409,3102.154l-4.243,1.314 M4812.166,3103.468v0.007 M4196.322,3258.871
	c-14.816,2.863-29.653,5.665-44.496,8.401C4166.676,3264.536,4181.506,3261.734,4196.322,3258.871z M2869.904,3216.993
	c-2.79-1.495-5.56-3.001-8.31-4.529C2864.344,3213.991,2867.12,3215.498,2869.904,3216.993z M2774.829,3153.881
	c-2.551-2.099-5.089-4.217-7.591-6.356C2769.74,3149.664,2772.277,3151.782,2774.829,3153.881z M2641.336,2976.345
	c-0.991-2.366-1.961-4.742-2.917-7.134C2639.375,2971.604,2640.345,2973.979,2641.336,2976.345z M2704.792,3083.287
	c-24.879-31.08-45.671-65.443-61.91-103.303c16.238,37.849,36.998,72.183,61.823,103.216c16.311,20.375,34.388,39.341,54.099,56.954
	C2739.126,3122.569,2721.082,3103.627,2704.792,3083.287z M2610.061,2867.031c-3.505-20.687-5.944-42.178-7.265-64.491
	 M2612.62,2881.032c-0.872-4.444-1.694-8.926-2.465-13.443C2610.926,2872.106,2611.748,2876.594,2612.62,2881.032z
	 M2617.12,2901.752c-1.506-6.316-2.9-12.719-4.196-19.2C2614.22,2889.033,2615.614,2895.428,2617.12,2901.752z M2625.051,2931.04
	c-0.857-2.823-1.687-5.665-2.497-8.521C2623.364,2925.375,2624.194,2928.209,2625.051,2931.04z M2602.119,2736.094
	c0.166-4.562,0.373-9.158,0.623-13.785C2602.492,2726.936,2602.285,2731.533,2602.119,2736.094z M2601.981,2784.483
	c-0.234-7.221-0.347-14.526-0.347-21.903C2601.634,2769.965,2601.754,2777.27,2601.981,2784.483z M2602.796,2802.54
	c-0.253-4.337-0.471-8.699-0.645-13.097 M2622.141,2126.734c-32.254-112.721-108.886-172.977-254.845-194.406
	c146.09,21.477,222.79,82.496,255.091,196.883c28.618,101.356,22.044,244.618-2.031,439.622
	C2644.616,2372.408,2651.197,2228.256,2622.141,2126.734z M2224.446,1923.216c-215.174-0.206-530.893,45.877-984.694,117.536
	C1693.553,1969.1,2009.272,1923.017,2224.446,1923.216z M2264.344,1923.827c-12.85-0.394-26.092-0.597-39.746-0.611
	C2238.252,1923.23,2251.494,1923.434,2264.344,1923.827z M571.196,2146.271c-124.255,19.247-242.454,28.372-354.723,28.304
	C328.743,2174.642,446.942,2165.517,571.196,2146.271z M5558.469,2813.591l-0.73,0.145 M7070.154,2298.075h0.062l4.774-2.266
	L7070.154,2298.075z M7033.848,2315.194l0.373-0.007l19.645-9.344l-0.279,0.021L7033.848,2315.194z M7017.178,2315.733h0.068
	l4.807-2.284L7017.178,2315.733z M6996.943,2332.728h0.419l21.491-10.222l-0.47,0.028L6996.943,2332.728z M6980.925,2332.826
	l0.38-0.007l19.57-9.31l-0.279,0.028L6980.925,2332.826z M6964.263,2333.365l0.061-0.007l4.793-2.27L6964.263,2333.365z
	 M6945.501,2357.278h-0.145l-14.697,6.975L6945.501,2357.278z M6959.329,2350.632l0.246,0.014l23.17-10.971l-0.405,0.007
	l-2.935,1.394L6959.329,2350.632z M6944.014,2350.36l0.419,0.007l21.498-10.229l-0.466,0.028L6944.014,2350.36z M6927.989,2350.465
	l0.379-0.007l19.591-9.317l-0.279,0.021L6927.989,2350.465z M6911.326,2351.004l0.066-0.007l4.789-2.272L6911.326,2351.004z
	 M6892.565,2374.917h-0.145l-14.697,6.975L6892.565,2374.917z M6906.392,2368.271l0.24,0.012l23.191-10.976l-0.405,0.007
	l-2.95,1.401L6906.392,2368.271z M6891.077,2367.999l0.42,0.005l21.517-10.234l-0.471,0.021L6891.077,2367.999z M6875.052,2368.104
	l0.38-0.007l19.604-9.332l-0.274,0.028L6875.052,2368.104z M6858.39,2368.641l0.066-0.005l4.789-2.272L6858.39,2368.641z
	 M6839.617,2392.564h-0.154l-14.676,6.965L6839.617,2392.564z M6853.441,2385.915l0.24,0.014l23.205-10.983l-0.404,0.005
	l-2.95,1.401L6853.441,2385.915z M6838.129,2385.643l0.417,0.007l21.53-10.24l-0.471,0.019L6838.129,2385.643z M6822.104,2385.751
	l0.377-0.007l19.618-9.339l-0.274,0.028L6822.104,2385.751z M6805.439,2386.287l0.061-0.007l4.808-2.277L6805.439,2386.287z
	 M6786.659,2410.215l-0.152-0.005l-14.657,6.958L6786.659,2410.215z M6800.487,2403.568l0.239,0.014l23.21-10.993l-0.404,0.007
	l-2.936,1.394L6800.487,2403.568z M6785.172,2403.296h0.419l21.535-10.24l-0.471,0.026L6785.172,2403.296z M6769.153,2403.395
	l0.373-0.007l19.624-9.329l-0.279,0.019L6769.153,2403.395z M6752.491,2403.934h0.059l4.822-2.291L6752.491,2403.934z
	 M6733.715,2427.854h-0.152l-14.65,6.954L6733.715,2427.854z M6747.55,2421.208l0.239,0.012l23.185-10.976l-0.413,0.007l-2.903,1.38
	L6747.55,2421.208z M6732.228,2420.933l0.42,0.007l21.509-10.233l-0.464,0.026L6732.228,2420.933z M6716.199,2421.041l0.376-0.007
	l19.619-9.332l-0.279,0.021L6716.199,2421.041z M6699.442,2421.584l0.152-0.007l10.147-4.814L6699.442,2421.584z M6680.767,2445.5
	h-0.154l-14.636,6.946L6680.767,2445.5z M6694.6,2438.851l0.239,0.014l23.199-10.983l-0.413,0.005l-2.903,1.382L6694.6,2438.851z
	 M6679.287,2438.58h0.417l21.517-10.233l-0.471,0.026L6679.287,2438.58z M6663.175,2438.685l0.464-0.012l19.604-9.324l-0.379,0.033
	L6663.175,2438.685z M6646.379,2439.231l0.185-0.014l12.839-6.082L6646.379,2439.231z M6628.189,2462.973l-0.152-0.007l-14.997,7.12
	L6628.189,2462.973z M6641.457,2456.584l0.246,0.014l23.384-11.072l-0.413,0.007l-2.889,1.375L6641.457,2456.584z
	 M6626.163,2456.266h0.511l21.591-10.273l-0.557,0.033L6626.163,2456.266z M6609.999,2456.385l0.497-0.014l19.698-9.371
	l-0.412,0.035L6609.999,2456.385z M6593.342,2456.917h0.054l3.525-1.675L6593.342,2456.917z M6575.206,2480.631h-0.239
	l-20.542,9.749L6575.206,2480.631z M6588.389,2474.249l0.331,0.007l23.757-11.25l-0.5,0.014l-3.167,1.507L6588.389,2474.249z
	 M6573.06,2473.931l0.54,0.007l21.889-10.421l-0.572,0.028L6573.06,2473.931z M6557.114,2474.003l0.365-0.007l19.898-9.469
	l-0.259,0.026L6557.114,2474.003z M6522.204,2498.256h-0.268l-23.283,11.051L6522.204,2498.256z M6535.385,2491.867l0.361,0.007
	l23.688-11.218l-0.525,0.007l-3.094,1.476L6535.385,2491.867z M6520.105,2491.582h0.419l21.915-10.426l-0.466,0.026
	L6520.105,2491.582z M6504.199,2491.668l0.286-0.007l19.903-9.463l-0.172,0.007L6504.199,2491.668z M5900.971,2695.685l-1.035,0.497
	l0.745-0.159l1.021-0.485L5900.971,2695.685z M6469.141,2515.896h-0.133l-13.003,6.169L6469.141,2515.896z M6482.397,2509.528
	l0.231,0.012l23.709-11.222l-0.393,0.007l-3.074,1.459L6482.397,2509.528z M6467.267,2509.209h0.354l21.889-10.414l-0.366,0.014
	L6467.267,2509.209z M6451.328,2509.322h0.267l19.923-9.484l-0.159,0.014L6451.328,2509.322z M6434.647,2509.846l0.092-0.007
	l7.909-3.746L6434.647,2509.846z M5847.929,2713.369l-0.89,0.427l0.757-0.159l0.878-0.412L5847.929,2713.369z M5874.416,2700.804
	l-2.067,0.984l0.619-0.126l2.038-0.97L5874.416,2700.804z M6416.179,2533.554h-0.075l-7.331,3.481L6416.179,2533.554z
	 M6429.519,2527.179h0.174l23.75-11.236l-0.34,0.007l-3.12,1.488L6429.519,2527.179z M6414.412,2526.86h0.312l21.896-10.414
	l-0.339,0.014L6414.412,2526.86z M6398.352,2526.961l0.433-0.014l19.903-9.477l-0.305,0.019L6398.352,2526.961z M6381.65,2527.504
	l0.087-0.007l6.442-3.055L6381.65,2527.504z M5795.112,2730.949l-0.989,0.478l0.75-0.155l0.977-0.464L5795.112,2730.949z
	 M5821.385,2718.49l-1.907,0.902l0.611-0.127l1.867-0.888L5821.385,2718.49z M5848.627,2705.64l-3.069,1.441l0.267-0.054l2.987-1.42
	L5848.627,2705.64z M6363.275,2551.221h-0.054l-4.847,2.296L6363.275,2551.221z M6376.676,2544.818l0.152,0.007l23.757-11.243
	l-0.308,0.007l-3.186,1.514L6376.676,2544.818z M6361.4,2544.513h0.459l21.916-10.421l-0.504,0.019L6361.4,2544.513z
	 M6345.396,2544.598l0.405-0.012l19.923-9.477l-0.299,0.019L6345.396,2544.598z M6328.674,2545.158l0.072-0.007l4.981-2.359
	L6328.674,2545.158z M5742.197,2748.594l-1.078,0.511l0.724-0.152l1.038-0.49L5742.197,2748.594z M5768.629,2736.055l-2.034,0.963
	l0.55-0.113l2.013-0.949L5768.629,2736.055z M5795.67,2723.305l-2.928,1.375l0.192-0.04l2.877-1.361L5795.67,2723.305z
	 M6310.411,2568.865h-0.192l-18.874,8.952L6310.411,2568.865z M6323.707,2562.457l0.286,0.007l23.702-11.224l-0.438,0.007
	l-3.13,1.488L6323.707,2562.457z M6308.431,2562.157h0.433l21.883-10.407l-0.485,0.028L6308.431,2562.157z M6292.467,2562.23
	l0.384-0.005l19.877-9.458l-0.272,0.021L6292.467,2562.23z M6275.737,2562.794h0.061l3.946-1.872L6275.737,2562.794z
	 M5689.134,2766.305l-0.756,0.358l0.695-0.145l0.731-0.344L5689.134,2766.305z M5715.737,2753.687l-2.125,1.01l0.532-0.105
	l2.078-0.996L5715.737,2753.687z M5742.94,2740.872l-3.027,1.42l0.146-0.026l2.961-1.415L5742.94,2740.872z M6257.428,2586.504
	h-0.16l-16.039,7.612L6257.428,2586.504z M6270.749,2580.096l0.274,0.005l23.656-11.203l-0.419,0.007l-3.088,1.469
	L6270.749,2580.096z M6255.495,2579.796h0.419l21.85-10.393l-0.46,0.019L6255.495,2579.796z M6239.517,2579.883l0.387-0.014
	l19.849-9.449l-0.251,0.019L6239.517,2579.883z M6222.835,2580.434h0.026l2.429-1.148L6222.835,2580.434z M5636.483,2783.825
	l-1.064,0.504l0.672-0.131l1.036-0.492L5636.483,2783.825z M5662.709,2771.399l-1.799,0.85l0.497-0.105l1.76-0.836
	L5662.709,2771.399z M5690.071,2758.497l-3.17,1.488l0.141-0.028l3.109-1.474L5690.071,2758.497z M6204.451,2604.157h-0.159
	l-14.61,6.939L6204.451,2604.157z M6217.754,2597.754l0.253,0.014l23.721-11.232h-0.398l-3.108,1.481L6217.754,2597.754z
	 M6202.532,2597.45l0.405,0.005l21.889-10.407l-0.459,0.021L6202.532,2597.45z M6186.533,2597.548l0.365-0.007l19.891-9.47
	l-0.239,0.019L6186.533,2597.548z M6169.885,2598.087h0.047l3.971-1.886L6169.885,2598.087z M5557.738,2813.736l-0.04,0.014
	l0.764-0.159 M5583.387,2801.537l-0.857,0.405l0.771-0.159l0.829-0.391L5583.387,2801.537z M5609.951,2788.939l-2.104,0.996
	l0.597-0.119l2.066-0.984L5609.951,2788.939z M5636.914,2776.227l-2.802,1.314l0.232-0.044l2.736-1.296L5636.914,2776.227z
	 M6151.522,2621.794h-0.139l-13.649,6.476L6151.522,2621.794z M6164.817,2615.401l0.247,0.005l23.721-11.229l-0.398,0.014
	l-3.106,1.474L6164.817,2615.401z M6149.622,2615.087h0.413l21.842-10.393l-0.43,0.014L6149.622,2615.087z M6133.61,2615.188
	l0.366-0.007l19.876-9.451l-0.26,0.014L6133.61,2615.188z M6116.934,2615.738h0.04l3.182-1.506L6116.934,2615.738z
	 M5530.418,2819.143l-1.122,0.536l0.895-0.185l1.089-0.518L5530.418,2819.143z M5556.695,2806.677l-1.891,0.897l0.729-0.141
	l1.86-0.883L5556.695,2806.677z M5584.018,2793.801l-3.102,1.46l0.366-0.073l3.043-1.448L5584.018,2793.801z M6111.928,2633.026
	l0.239,0.012l23.616-11.182h-0.384l-3.036,1.448L6111.928,2633.026z M6096.739,2632.707h0.42l21.795-10.374l-0.453,0.026
	L6096.739,2632.707z M6080.714,2632.82l0.365-0.007l19.844-9.451l-0.24,0.021L6080.714,2632.82z M6064.052,2633.363l0.04-0.007
	l3.46-1.64L6064.052,2633.363z M5451.706,2849.047l-0.051,0.026l0.67-0.138l0.026-0.014L5451.706,2849.047z M5477.381,2836.841
	l-0.829,0.398l0.684-0.145l0.804-0.38L5477.381,2836.841z M5503.998,2824.23l-2.197,1.035l0.499-0.098l2.151-1.024L5503.998,2824.23
	z M5531.063,2811.478l-2.91,1.368l0.1-0.019l2.842-1.354L5531.063,2811.478z M5995.05,2658.654l-0.232,0.019l-12.387,5.845
	l0.319-0.007L5995.05,2658.654z M6043.723,2650.384l0.419,0.007l21.937-10.439l-0.445,0.021L6043.723,2650.384z M6027.712,2650.499
	l0.351-0.007l20.022-9.524l-0.239,0.019L6027.712,2650.499z M6011.029,2651.049h0.039l2.444-1.162L6011.029,2651.049z
	 M5424.632,2854.408l-1.129,0.544l0.663-0.138l1.115-0.532L5424.632,2854.408z M5450.949,2841.935l-1.857,0.876l0.524-0.098
	l1.811-0.865L5450.949,2841.935z M5478.297,2829.044l-3.2,1.502l0.18-0.033l3.135-1.488L5478.297,2829.044z M5029.005,3024.599
	l0.061-0.026l0.326-0.134h0.012l9.259-3.833v-0.005l5.126-2.139h-0.007l-12.185,5.053h-0.014l-12.232,5.021l-0.007,0.014
	l-0.757,0.312l1.712-0.698l0.007,0.007l8.64-3.54v-0.007L5029.005,3024.599z M4620.524,3159.532v0.007l-0.553,0.147
	c-130.576,35.782-268.26,68.683-407.823,96.103c204.141-40.107,404.21-91.914,583.967-147.341
	c-25.795,7.949-52.147,15.873-78.956,23.716c-31.394,9.184-63.629,18.323-96.609,27.362L4620.524,3159.532z M2412.787,1916.979
	c-159.36-21.73-399.855,1.701-752.532,53.117c324.153-46.037,548.851-66.054,700.91-45.32
	c153.55,20.933,233.769,82.761,267.354,200.137c33.339,116.486,20.322,287.687-12.485,528.287
	c-7.272,53.342-9.345,102.944-6.623,148.956c2.798,47.25,10.667,90.764,23.145,130.716c17.288,55.34,43.493,103.914,77.403,146.256
	c35.485,44.317,79.434,81.866,130.478,113.297c48.918,30.12,104.399,54.677,165.238,74.209
	c63.955,20.54,133.826,35.555,208.22,45.69c187.247,25.528,403.189,20.303,626.15-4.948c51.489-5.831,103.357-12.738,155.317-20.568
	c-259.229,35.822-513.544,47.206-729.891,17.707c-151.013-20.589-283.604-61.106-386.562-127.078
	c-103.209-66.145-176.667-157.861-209.094-280.714c-19.898-75.376-24.321-162.448-10.686-262.478
	C2723.996,2158.524,2711.061,1957.651,2412.787,1916.979z M7123.206,2280.407l4.721-2.238l-4.782,2.245L7123.206,2280.407z
	 M7087.189,2297.536l19.672-9.357l-0.281,0.019l-19.769,9.345L7087.189,2297.536z M7050.285,2315.096l21.552-10.248l-0.466,0.019
	l-21.502,10.229H7050.285z M7012.497,2333.014l23.171-10.972l-0.413,0.007l-2.914,1.387l-20.09,9.563L7012.497,2333.014z
	 M6983.596,2346.614l14.828-6.968h-0.146L6983.596,2346.614z M6092.304,2642.355l0.159-0.04l6.176-2.9h-0.141L6092.304,2642.355z
	 M6062.916,2648.812l0.546-0.12l19.471-9.226l-0.405,0.007l-3.102,1.474L6062.916,2648.812z M6005.87,2660.866l0.71-0.147
	l6.488-3.088l-0.446,0.026L6005.87,2660.866z M5901.796,2687.954l-0.232,0.04l-3.003,1.415l0.279-0.061L5901.796,2687.954z
	 M5927.989,2683.038l-0.597,0.115l-1.987,0.942l0.625-0.127L5927.989,2683.038z M35.199,0
	c239.818,662.234,860.889,1781.148,2282.394,1560.924c171.573-26.58,330.376-51.835,476.534-75.065
	c674.731-107.262,1080.113-171.707,1313.502-139.884c304.078,41.461,317.526,244.346,252.024,724.706
	c-10.154,74.493-10.215,141.709-1.263,202.156c20.828,140.624,90.513,244.731,195.21,319.146
	c104.964,74.598,245.183,119.487,406.71,141.508c227.53,31.021,497.327,16.702,770.643-23.761
	c7.066-2.259,13.694-4.318,19.849-6.171c6.497-1.958,13.205-3.917,20.05-5.864h0.014c5.792-1.64,11.501-3.219,17.086-4.707
	c5.513-1.476,11.164-2.928,16.922-4.365c14.371-4.981,28.658-9.688,42.881-14.099c17.56-6.216,35-12.04,52.332-17.433
	c17.78-6.302,35.431-12.199,52.984-17.658c17.772-6.302,35.416-12.206,52.957-17.658c17.904-6.349,35.682-12.3,53.354-17.785
	c17.613-6.244,35.104-12.087,52.491-17.501c17.745-6.288,35.372-12.178,52.886-17.632c17.882-6.342,35.642-12.286,53.294-17.771
	c17.73-6.283,35.355-12.188,52.862-17.625c17.632-6.251,35.152-12.115,52.566-17.534c17.883-6.342,35.642-12.279,53.295-17.771
	c4.707-1.668,9.402-3.308,14.092-4.922c12.857-4.416,25.647-8.601,38.385-12.558c4.854-1.719,9.702-3.42,14.537-5.082
	c12.837-4.409,25.603-8.58,38.313-12.537c4.887-1.734,9.756-3.435,14.624-5.107c12.797-4.397,25.527-8.547,38.207-12.499
	c4.913-1.748,9.821-3.467,14.715-5.147c12.865-4.416,25.654-8.601,38.399-12.564c4.854-1.727,9.705-3.421,14.544-5.082
	c12.905-4.428,25.734-8.626,38.519-12.597c4.822-1.706,9.618-3.392,14.418-5.039c12.97-4.456,25.867-8.669,38.71-12.666
	c4.763-1.694,9.505-3.348,14.245-4.974c13.052-4.484,26.034-8.72,38.959-12.738c4.681-1.661,9.343-3.294,14.006-4.894
	c12.583-4.325,25.104-8.408,37.574-12.3c5.108-1.82,10.208-3.605,15.301-5.353c12.652-4.341,25.237-8.46,37.769-12.365
	c5.053-1.792,10.095-3.552,15.128-5.286c12.857-4.416,25.649-8.6,38.385-12.557c4.856-1.722,9.704-3.421,14.537-5.082
	c13.343-4.583,26.626-8.919,39.836-13.017c4.402-1.554,8.792-3.095,13.181-4.602c13.118-4.503,26.167-8.767,39.151-12.799
	c4.615-1.64,9.23-3.254,13.832-4.833c12.904-4.43,25.741-8.626,38.519-12.6c4.814-1.706,9.617-3.393,14.417-5.04
	c12.905-4.43,25.741-8.626,38.519-12.597c4.814-1.715,9.617-3.395,14.417-5.042c12.905-4.43,25.741-8.619,38.519-12.597
	c4.814-1.708,9.624-3.395,14.418-5.042c12.904-4.428,25.741-8.626,38.519-12.598c4.814-1.708,9.622-3.395,14.418-5.042
	c12.904-4.428,25.74-8.634,38.519-12.598c4.821-1.706,9.617-3.392,14.417-5.039c12.905-4.43,25.741-8.629,38.519-12.6
	c4.822-1.706,9.617-3.393,14.418-5.039c12.904-4.43,25.741-8.622,38.518-12.598c4.814-1.708,9.622-3.395,14.418-5.042
	c12.904-4.43,25.741-8.619,38.519-12.597c4.821-1.708,9.615-3.395,14.417-5.042c443.561-152.359,813.903-47.463,1211.333,1109.513
	c107.965,314.297,192.933,561.227,265.236,750.041h-7.022c-72.335-188.919-157.094-435.232-264.494-747.89
	c-361.265-1051.68-699.093-1230.314-1089.949-1138.36c371.417-63.477,697.087,145.971,1043.296,1153.848
	c104.628,304.595,187.656,545.933,258.497,732.402h-7.012c-70.854-186.53-153.677-427.231-257.77-730.251
	c-361.264-1051.675-699.092-1230.314-1089.948-1138.36c371.417-63.47,697.08,145.963,1043.295,1153.848
	c101.363,295.083,182.458,530.791,251.83,714.763h-7.019c-69.379-183.993-150.256-419.061-251.095-712.612
	c-361.264-1051.682-699.092-1230.3-1089.948-1138.36c371.411-63.47,697.08,145.97,1043.296,1153.846
	c98.155,285.735,177.289,515.797,245.196,697.126h-7.021c-67.892-181.31-146.814-410.707-244.459-694.973
	c-361.265-1051.682-699.098-1230.307-1089.95-1138.362c371.414-63.467,697.08,145.973,1043.296,1153.848
	c95,276.551,172.188,500.946,238.613,679.487h-7.012c-66.406-178.473-143.382-402.219-237.886-677.333
	c-361.264-1051.675-699.092-1230.314-1089.948-1138.362c371.418-63.47,697.087,145.973,1043.296,1153.848
	c91.897,267.517,167.128,486.235,232.072,661.847h-7.02c-64.91-175.519-139.915-393.56-231.337-659.697
	C8035.49,2308.261,7703.532,2116.971,7321.9,2197.075l-5.072,2.157c364.471-54.291,685.53,163.87,1026.525,1156.559
	c88.846,258.631,162.109,471.651,225.564,644.208h-7.012c-63.402-172.417-136.454-384.781-224.836-642.058
	c-347.642-1012.027-673.583-1215.61-1045.957-1147.591l-9.179,4.037c357.049-44.402,673.126,182.765,1008.483,1159.042
	c85.842,249.885,157.142,457.194,219.098,626.569h-7.021c-61.9-169.202-132.969-375.833-218.359-624.418
	C7943.132,2382.9,7623.03,2168.047,7259.486,2224.383l-12.537,5.658c349.714-34.545,660.803,201.147,990.531,1161.029
	c82.888,241.284,152.207,442.862,212.662,608.93h-7.02c-60.382-165.868-129.481-366.769-211.927-606.779
	c-334.593-974.026-649.07-1199.194-1004.198-1154.087l-15.273,7.04c342.528-24.839,648.671,218.903,972.818,1162.533
	c67.308,195.941,125.704,365.719,177.524,511.182c9.814,27.554,19.406,54.251,28.782,80.111h-7.052
	c-9.126-25.176-18.45-51.137-27.985-77.906c-52.049-146.092-110.357-315.62-177.552-511.233
	c-328.403-956.024-637.44-1190.626-984.561-1156.325l-17.618,8.24c335.57-15.367,636.845,235.867,955.525,1163.571
	c69.472,202.248,129.457,376.677,182.705,525.752c5.81,16.271,11.541,32.235,17.201,47.902h-7.062
	c-5.398-14.957-10.857-30.171-16.396-45.671c-53.229-149.019-113.231-323.509-182.732-525.829
	c-322.467-938.757-626.277-1181.913-965.807-1157.939l-19.722,9.322c328.907-6.321,625.48,251.759,938.875,1164.103
	c72.028,209.701,133.865,389.462,188.148,540.938l5.412,15.076h-7.03l-4.611-12.844c-54.888-153.144-116.477-332.217-188.203-541.02
	c-316.834-922.35-615.659-1173.193-948.04-1158.928l-21.509,10.227c322.546,2.319,614.576,266.648,922.896,1164.19
	c71.579,208.384,133.087,387.269,187.201,538.375h-7.027c-54.404-152.001-115.476-329.579-186.457-536.224
	c-311.481-906.751-605.55-1164.487-931.212-1159.387l-2.961,1.408l-20.097,9.571c316.511,10.505,604.165,280.527,907.617,1163.897
	c68.81,200.315,128.313,373.322,180.924,520.736h-7.02c-52.777-147.91-111.889-319.777-180.188-518.585
	c-306.413-892.001-595.96-1155.908-915.313-1159.401l-24.544,11.644c310.844,18.208,594.372,293.305,893.204,1163.243
	c66.033,192.242,123.491,359.345,174.628,503.099h-7.033c-51.109-143.715-108.256-309.901-173.879-500.946
	c-301.599-877.989-586.863-1147.492-900.295-1159.075l-26.161,12.307c305.613,25.303,585.275,304.846,879.803,1162.255
	c63.35,184.424,118.803,345.705,168.373,485.46h-7.033c-49.49-139.577-104.657-299.998-167.623-483.307
	c-297.103-864.913-578.361-1139.365-886.304-1158.424c-9.166,4.276-18.364,8.554-27.601,12.818
	c300.732,31.891,576.763,315.44,867.251,1161.092c60.694,176.699,114.148,332.149,162.129,467.821h-7.033
	c-47.869-135.393-101.044-290.025-161.377-465.67c-293.015-852.99-570.62-1131.626-873.608-1157.426
	c-9.583,4.402-19.207,8.793-28.869,13.162c296.299,37.855,569.018,324.837,855.822,1159.752
	c58.063,169.022,109.5,318.629,155.888,450.181h-7.041c-46.222-131.096-97.399-279.962-155.129-448.031
	c-289.235-842.014-563.475-1124.373-861.927-1156.325c-10.06,4.524-20.169,9.032-30.316,13.502
	c292.349,43.113,562.092,333.007,845.588,1158.312c55.493,161.539,104.931,305.312,149.691,432.542h-7.041
	c-44.582-126.745-93.765-269.79-148.931-430.391c-285.881-832.244-557.098-1117.734-851.539-1155.09
	c-10.494,4.583-21.039,9.146-31.633,13.661c288.863,47.763,555.957,340.152,836.516,1156.917
	c52.951,154.133,100.382,292.103,143.49,414.903h-7.033c-42.949-122.369-90.119-259.575-142.737-412.752
	c-282.952-823.719-551.547-1111.815-842.5-1153.862c-10.964,4.629-21.976,9.219-33.048,13.762
	c285.949,51.634,550.802,346.028,828.893,1155.587c50.42,146.783,95.846,278.901,137.3,397.266h-7.033
	c-41.274-117.866-86.441-249.248-136.548-395.113c-280.508-816.599-546.918-1106.776-834.977-1152.693
	c-11.515,4.669-23.098,9.278-34.733,13.827c27.41,5.292,54.631,12.818,81.7,22.852c253.074,93.798,491.94,405.407,741.354,1131.5
	c47.93,139.523,91.329,265.798,131.117,379.627h-7.026c-39.596-113.297-82.75-238.848-130.372-377.474
	c-248.665-723.895-486.145-1034.314-737.358-1127.424c-30.204-11.192-60.614-19.22-91.282-24.466
	c-12.181,4.702-24.433,9.336-36.741,13.879c31.083,6.276,61.929,15.46,92.592,27.92
	c247.435,100.541,481.714,414.041,726.133,1125.577c45.465,132.352,86.869,252.795,124.968,361.987h-7.033
	c-37.896-108.635-79.05-228.354-124.215-359.837c-243.698-709.438-476.668-1021.75-722.35-1121.578
	c-33.816-13.748-67.898-23.431-102.286-29.6c-12.764,4.641-25.603,9.198-38.504,13.647c35.396,7.3,70.482,18.384,105.334,33.805
	c241.922,107.007,471.673,422.037,711.151,1119.214c43.036,125.271,82.423,239.865,118.817,344.348h-7.026
	c-36.194-103.926-75.336-217.788-118.072-342.198c-238.789-695.165-467.296-1009.03-707.541-1115.297
	c-38.085-16.847-76.484-28.456-115.296-35.555c-12.232,4.145-24.524,8.188-36.879,12.134l-3.458,1.195
	c40.423,8.333,80.448,21.617,120.183,40.63c236.498,113.218,461.739,429.449,696.334,1112.382
	c40.625,118.264,78,227,112.682,326.709h-7.034c-34.467-99.125-71.597-207.156-111.929-324.558
	c-233.94-681.033-458.005-996.115-692.91-1108.569c-42.881-20.521-86.149-34.282-129.938-42.279
	c-12.221,4.137-24.507,8.184-36.867,12.129l-3.454,1.195c45.4,9.369,90.3,24.956,134.828,47.909
	c231.159,119.14,451.93,436.256,681.686,1105.101c38.24,111.327,73.605,214.21,106.552,309.072h-7.028
	c-32.739-94.278-67.858-196.445-105.805-306.919c-229.125-667.021-448.787-982.999-678.445-1101.371
	c-47.623-24.543-95.712-40.564-144.431-49.469c-12.213,4.145-24.493,8.181-36.839,12.12l-3.414,1.183
	c50.327,10.386,100.031,28.451,149.308,55.68c225.885,124.826,442.225,442.504,667.166,1097.344
	c35.883,104.458,69.235,201.491,100.429,291.433h-7.033c-30.987-89.349-64.08-185.658-99.677-289.28
	c-224.337-653.076-439.608-969.638-664.074-1093.68c-52.317-28.908-105.182-47.351-158.795-57.161
	c-12.213,4.138-24.5,8.174-36.844,12.12l-3.468,1.202c55.279,11.396,109.812,32.043,163.842,63.941
	c220.665,130.278,432.545,448.209,652.685,1089.064c33.55,97.664,64.876,188.828,94.304,273.794h-7.028
	c-29.213-84.356-60.293-174.809-93.56-271.643c-219.562-639.174-430.445-956.014-649.775-1085.503
	c-57.006-33.664-114.63-54.616-173.159-65.316c-12.194,4.13-24.459,8.162-36.778,12.101l-3.467,1.202
	c60.241,12.419,119.585,35.822,178.379,72.806c215.438,135.54,422.848,453.41,638.147,1080.199
	c31.24,90.944,60.553,176.242,88.201,256.154h-7.022c-27.435-79.296-56.502-163.877-87.462-254.004
	c-214.754-625.194-421.212-941.995-635.398-1076.743c-61.708-38.826-124.095-62.481-187.551-74.069
	c-12.193,4.123-24.446,8.156-36.765,12.094l-3.493,1.209c65.314,13.474,129.581,39.847,193.209,82.435
	c210.146,140.659,412.978,458.145,623.344,1070.563c28.956,84.281,56.249,163.715,82.103,238.515h-7.026
	c-25.634-74.174-52.684-152.891-81.36-236.365c-209.846-610.909-411.789-927.359-620.738-1067.215
	c-66.493-44.509-133.741-71.094-202.229-83.59c-12.188,4.123-24.441,8.153-36.745,12.087l-3.493,1.209
	c70.681,14.563,140.139,44.268,208.89,93.266c204.558,145.8,402.523,462.549,607.662,1059.732
	c26.69,77.693,51.967,151.256,76.007,220.876h-7.019c-23.815-68.98-48.86-141.835-75.271-218.725
	c-204.646-595.756-401.773-911.482-605.219-1056.49c-71.557-50.997-143.946-80.828-217.77-94.311
	c-12.178,4.125-24.426,8.141-36.724,12.08l-3.42,1.183c76.911,15.866,152.341,49.668,226.994,106.702
	c198.132,151.392,390.424,466.818,589.487,1046.321c24.438,71.154,47.717,138.867,69.924,203.239h-7.026
	c-21.99-63.735-45.008-130.723-69.181-201.086c-198.596-578.156-390.125-892.608-587.229-1043.215
	c-77.407-59.145-155.726-92.976-235.72-107.6c-12.624,4.278-25.315,8.448-38.074,12.513l-2.27,0.782
	c86.42,17.813,170.988,58.21,254.653,128.812c188.448,159.049,372.137,471.513,561.986,1024.194
	c22.22,64.69,43.459,126.52,63.833,185.6h-7.019c-20.141-58.428-41.143-119.541-63.098-183.447
	c-189.43-551.46-372.435-863.001-559.979-1021.286c-86.348-72.872-173.698-113.21-263.141-129.514
	c-11.138,3.772-22.328,7.464-33.57,11.077c3.266,0.71,6.813,1.528,10.625,2.437c23.848,5.726,47.543,13.19,71.08,22.547
	c23.597,9.39,47.053,20.673,70.336,33.997c19.598,11.215,39.182,23.953,58.729,38.259c19.511,14.284,38.963,30.131,58.322,47.564
	c10.864,9.781,21.723,20.069,32.54,30.867c10.732,10.711,21.563,22.074,32.455,34.095c8.256,9.104,16.518,18.576,24.771,28.384
	c8.314,9.87,16.571,19.999,24.733,30.337c6.879,8.706,13.825,17.726,20.807,27.043c6.991,9.329,13.933,18.827,20.8,28.503
	c5.962,8.402,12.047,17.173,18.202,26.233c6.091,8.973,12.115,18.031,18.059,27.167c5.593,8.589,10.997,17.075,16.243,25.462
	c5.446,8.708,10.859,17.527,16.224,26.399c4.742,7.837,9.704,16.177,14.844,24.97c5.021,8.589,9.98,17.194,14.849,25.788
	c9.032,15.927,18.19,32.528,27.467,49.863c4.246,7.928,8.528,16.025,12.817,24.239c4.71,9.032,9.021,17.368,12.832,24.865
	c3.805,7.485,7.849,15.54,12.033,23.969c4.011,8.094,8.036,16.29,12.033,24.525c4.039,8.294,7.83,16.177,11.423,23.728
	c3.826,8.036,7.646,16.137,11.424,24.253c3.088,6.642,6.68,14.411,10.864,23.543c3.652,7.989,7.298,16.011,10.877,24.014
	c3.714,8.296,7.179,16.086,10.374,23.344c3.512,7.989,6.979,15.931,10.374,23.794l-0.014,0.007c3.381,7.811,6.687,15.54,9.93,23.192
	c3.659,8.626,6.953,16.449,9.933,23.588c2.943,7.047,6.164,14.83,9.538,23.047c3.613,8.804,6.867,16.756,9.563,23.421
	c17.845,44.099,35.822,90.427,53.899,139.026c18.11,48.673,36.173,99.212,54.192,151.664c20.155,58.681,39.5,114.991,58.121,169.036
	h-14.039c-18.171-52.744-37.031-107.618-56.65-164.732c-18.56-54.047-36.984-105.547-55.239-154.573
	c-18.291-49.089-36.607-96.183-54.95-141.329c-3.667-9.025-6.867-16.843-9.582-23.428c-2.764-6.689-5.932-14.298-9.596-23.025
	c-3.594-8.568-6.921-16.423-9.99-23.604c-3.659-8.58-6.933-16.177-9.973-23.182c-3.076-7.094-6.588-15.076-10.439-23.775
	c-3.529-7.963-7.008-15.746-10.422-23.33c-3.666-8.156-7.318-16.166-10.917-23.995v-0.014c-3.667-7.982-7.312-15.819-10.913-23.508
	c-3.837-8.202-7.675-16.292-11.468-24.227c-3.833-8.017-7.65-15.927-11.456-23.71c-3.639-7.45-7.643-15.554-12.113-24.511
	c-4.337-8.701-8.395-16.737-12.086-23.942c-4.218-8.235-8.562-16.55-12.958-24.885c-4.29-8.123-8.605-16.203-12.949-24.239
	c-4.376-8.108-8.985-16.55-13.806-25.27c-4.532-8.188-9.126-16.376-13.781-24.513c-5.082-8.879-10.102-17.48-15.05-25.82
	c-5.072-8.54-10.093-16.869-15.048-24.97c-5.339-8.746-10.831-17.538-16.397-26.319c-5.677-8.945-11.208-17.499-16.555-25.6v-0.014
	c-6.063-9.191-12.22-18.316-18.431-27.329c-6.176-8.959-12.326-17.684-18.434-26.146c-6.981-9.676-14.055-19.218-21.186-28.59
	c-6.994-9.191-14.079-18.23-21.206-27.069c-8.615-10.672-17.187-20.919-25.682-30.7c-8.518-9.817-17.107-19.347-25.708-28.55
	l0.007-0.007c-11.396-12.188-22.885-23.829-34.447-34.934c-11.476-11.023-22.993-21.456-34.508-31.298
	c-44.673-38.193-89.616-67.633-134.941-89.464c-45.005-21.683-90.431-35.881-136.388-43.738c-6.802,2.298-13.847,4.629-21.079,6.96
	v0.007l-10.899,3.507c-5.386,1.865-10.758,3.704-16.138,5.525c-12.007,4.065-24.082,8.05-36.208,11.92
	c-17.299,5.997-34.693,11.808-52.177,17.393c-17.455,6.056-35.019,11.92-52.705,17.567c-17.419,6.042-34.96,11.895-52.604,17.531
	c-17.501,6.07-35.138,11.955-52.911,17.632c-17.539,6.084-35.199,11.967-52.99,17.653c-17.546,6.082-35.225,11.986-53.028,17.672
	c-17.48,6.063-35.094,11.939-52.824,17.604c-17.527,6.077-35.185,11.974-52.977,17.653c-17.52,6.07-35.159,11.953-52.937,17.632
	c-17.566,6.089-35.257,12-53.082,17.691c-17.426,6.037-34.979,11.895-52.665,17.546c-17.527,6.077-35.198,11.967-52.99,17.653
	c-17.513,6.07-35.146,11.96-52.916,17.639c-17.545,6.075-35.217,11.979-53.03,17.665c-17.433,6.042-34.992,11.906-52.684,17.56
	c-17.538,6.075-35.21,11.967-53.016,17.658c-17.585,6.096-35.298,12.014-53.15,17.712c-18.208,6.309-36.558,12.431-55.054,18.316
	c-17.3,5.977-34.714,11.768-52.267,17.36l-6.867,2.371c-26.45,10.346-53.208,20.369-80.256,29.958
	c-27.076,9.596-54.478,18.794-82.191,27.446c-267.231,83.513-581.61,159.601-888.356,201.041
	c-255.025,34.461-504.812,44.973-717.894,15.917c-75.264-10.259-145.978-25.462-210.729-46.273
	c-61.741-19.844-118.126-44.816-167.932-75.484c-52.367-32.249-97.479-70.815-133.94-116.359
	c-34.899-43.598-61.86-93.587-79.652-150.528c-12.778-40.889-20.828-85.385-23.696-133.692c-2.776-46.88-0.677-97.385,6.719-151.664
	c32.376-237.433,45.353-406.225,13.104-520.445c-31.996-113.316-108.979-172.981-256.6-193.104
	c-231.948-31.624-636.737,32.722-1310.407,139.809l-0.04,0.014l-0.225,0.033v-0.007l-2.397,0.379
	c-144.75,23.011-301.96,48.002-474.137,74.678C364.876,2184.93,174.729,2188.369,0,2169.329v-6.653
	c66.478,7.291,135.212,11.294,206.287,11.695c-71.075-0.401-139.809-4.405-206.287-11.695v-6.762
	c174.064,19.16,363.541,15.84,570.187-16.177l22.215-3.446c-215.558,30.574-412.528,30.255-592.402,5.431v-6.646
	c188.528,26.165,395.671,25.607,623.629-9.709c171.573-26.579,330.376-51.835,476.534-75.064
	c674.731-107.262,1080.111-171.707,1313.5-139.882c304.077,41.459,317.525,244.346,252.024,724.704
	c-13.513,99.146-9.151,185.368,10.526,259.915c31.97,121.108,104.439,211.554,206.28,276.823
	c102.108,65.426,233.781,105.632,383.851,126.094c311.321,42.457,701.641,0.019,1071.904-78.127
	c-354.509,71.04-722.926,107.534-1019.851,67.05c-148.529-20.249-279.267-59.796-381.499-123.892
	c-102.499-64.26-176.362-153.189-210.87-272.046c-22.653-78.054-28.325-169.01-13.966-274.332
	c64.869-475.723,51.934-676.596-246.34-717.268c-232.452-31.696-637.476,32.694-1311.588,139.856
	c-145.673,23.159-303.939,48.321-476.562,75.064C427.84,2152.952,202.74,2150.448,0,2116.439v-6.787
	c202.396,34.116,427.156,36.712,676.566-1.926c171.573-26.577,330.376-51.835,476.534-75.064
	c674.731-107.26,1080.111-171.707,1313.5-139.882c304.077,41.459,317.525,244.346,252.024,724.706
	c-14.23,104.378-8.633,194.418,13.767,271.608c34.023,117.189,106.89,204.886,208.014,268.288
	c101.391,63.568,231.225,102.804,378.871,122.933c311.476,42.471,702.021-0.026,1072.436-78.239
	c-354.676,71.108-723.306,107.665-1020.375,67.162c-148.37-20.228-278.967-59.698-381.147-123.665
	c-102.441-64.133-176.336-152.859-210.982-271.455c-22.852-78.232-28.618-169.455-14.205-275.148
	c64.869-475.725,51.931-676.598-246.34-717.267c-232.452-31.699-637.476,32.694-1311.588,139.853
	c-145.673,23.159-303.939,48.321-476.562,75.065c-271.767,42.105-514.155,35.133-730.51-7.849v-6.82
	c215.996,43.113,458.051,50.186,729.5,8.135c171.576-26.577,330.378-51.833,476.534-75.065
	c674.734-107.26,1080.113-171.707,1313.502-139.881c304.077,41.461,317.525,244.346,252.024,724.706
	c-14.284,104.737-8.594,195.055,14.005,272.425c34.156,116.91,107.056,204.42,208.126,267.698
	c101.33,63.435,231.046,102.605,378.519,122.706c310.785,42.377,700.266,0.152,1069.946-77.726
	c-353.901,70.779-721.507,107.061-1017.874,66.649c-148.674-20.275-279.503-59.857-381.763-124.042
	c-102.521-64.339-176.369-153.39-210.776-272.46c-22.522-77.925-28.133-168.703-13.806-273.766
	c64.869-475.723,51.931-676.598-246.34-717.267c-232.452-31.699-637.476,32.694-1311.588,139.856
	c-145.673,23.157-303.939,48.319-476.562,75.065C489.279,2124.562,229.523,2112.641,0,2059.731v-6.888
	c229.165,53.077,488.574,65.131,782.436,19.605c171.576-26.577,330.378-51.833,476.534-75.064
	c674.734-107.26,1080.113-171.704,1313.502-139.882c304.077,41.461,317.525,244.346,252.024,724.706
	c-14.198,104.114-8.659,193.98,13.607,271.043c33.925,117.376,106.778,205.211,207.948,268.7
	c101.417,63.655,231.344,102.937,379.109,123.086c311.115,42.424,701.109,0.068,1071.147-77.972
	c-354.28,70.941-722.383,107.361-1019.097,66.895c-149.073-20.322-280.201-60.068-382.593-124.559
	c-102.654-64.658-176.43-154.18-210.504-273.887c-22.055-77.49-27.449-167.621-13.244-271.821
	c64.871-475.723,51.934-676.598-246.338-717.267c-232.459-31.699-637.469,32.694-1311.588,139.856
	c-145.673,23.157-303.939,48.321-476.562,75.065c-316.968,49.104-594.14,31.698-836.383-32.118v-6.972
	c241.87,64.013,518.691,81.62,835.373,32.554c171.573-26.577,330.378-51.833,476.534-75.065
	c674.734-107.26,1080.113-171.704,1313.502-139.881c304.078,41.461,317.525,244.346,252.024,724.706
	c-14.078,103.256-8.753,192.488,13.056,269.124c33.592,118.021,106.372,206.301,207.663,270.101
	c101.548,63.962,231.782,103.41,379.939,123.606c311.09,42.422,701.063,0.073,1071.079-77.953
	c-354.249,70.927-722.322,107.333-1019.007,66.874c-149.532-20.387-281.012-60.307-383.537-125.15
	c-102.785-65.004-176.496-155.044-210.193-275.509c-21.531-77.002-26.697-166.405-12.626-269.609
	c64.871-475.723,51.934-676.598-246.338-717.267c-232.452-31.698-637.475,32.694-1311.588,139.856
	c-145.673,23.157-303.939,48.321-476.562,75.065C549.029,2096.422,254.554,2072.548,0,1996.8v-6.979
	c254.163,75.988,548.312,100.028,888.309,47.351c171.573-26.579,330.376-51.835,476.534-75.065
	c674.734-107.262,1080.113-171.707,1313.502-139.884c304.078,41.461,317.525,244.349,252.024,724.706
	c-13.947,102.293-8.854,190.827,12.438,266.967c33.212,118.737,105.934,207.529,207.351,271.668
	c101.689,64.313,232.272,103.933,380.881,124.196c311.987,42.544,703.295-0.166,1074.263-78.619
	c-355.248,71.354-724.648,108.117-1022.217,67.542c-150.014-20.455-281.863-60.567-384.514-125.771
	c-102.923-65.375-176.54-155.953-209.832-277.193c-20.999-76.48-25.928-165.137-11.995-267.306
	c64.871-475.723,51.934-676.596-246.338-717.267c-232.452-31.696-637.476,32.694-1311.589,139.856
	c-145.673,23.159-303.939,48.321-476.562,75.065c-364.199,56.422-675.8,24.97-942.256-63.796v-7.085
	c266.051,89.044,577.314,120.729,941.246,64.346c171.573-26.577,330.376-51.835,476.534-75.065
	c674.731-107.262,1080.113-171.707,1313.503-139.881c304.077,41.459,317.525,244.346,252.024,724.706
	c-13.806,101.276-8.959,189.065,11.808,264.687c32.807,119.487,105.442,208.81,207.018,273.33
	c101.827,64.677,232.757,104.484,381.831,124.813c310.464,42.337,699.481,0.239,1068.821-77.482
	c-353.539,70.623-720.66,106.782-1016.716,66.419c-150.513-20.528-282.746-60.841-385.571-126.448
	c-103.083-65.768-176.641-156.93-209.494-278.974c-20.435-75.908-25.108-163.764-11.323-264.86
	c64.871-475.725,51.934-676.598-246.338-717.27c-232.452-31.696-637.476,32.694-1311.591,139.856
	c-145.671,23.159-303.937,48.321-476.56,75.065C606.587,2068.629,277.859,2028.803,0,1926.004v-7.19
	c277.432,103.136,605.817,143.248,994.182,83.079c171.573-26.577,330.376-51.833,476.534-75.065
	c674.731-107.26,1080.113-171.707,1313.503-139.881c304.077,41.461,317.525,244.346,252.024,724.706
	c-13.661,100.187-9.053,187.179,11.164,262.272c32.39,120.316,104.943,210.216,206.653,275.108
	c101.96,65.056,233.288,105.063,382.886,125.464c312.153,42.562,703.729-0.213,1074.867-78.75
	c-355.432,71.431-725.093,108.256-1022.854,67.652c-151.024-20.586-283.622-61.104-386.578-127.09
	c-103.216-66.148-176.676-157.886-209.089-280.747c-19.884-75.357-24.307-162.422-10.674-262.424
	c64.871-475.723,51.934-676.598-246.338-717.267c-232.452-31.699-637.476,32.694-1311.591,139.853
	c-145.671,23.159-303.937,48.321-476.56,75.065C634.587,2054.855,288.743,2005.77,0,1887.886v-7.305
	c288.305,118.278,633.783,167.708,1047.119,103.673c171.573-26.577,330.376-51.833,476.534-75.065
	c674.731-107.26,1080.113-171.707,1313.503-139.882c304.077,41.461,317.525,244.346,252.024,724.706
	c-13.516,99.118-9.151,185.333,10.512,259.861c31.959,121.113,104.432,211.586,206.273,276.853
	c102.108,65.443,233.794,105.648,383.87,126.11c311.404,42.462,701.847,0,1072.204-78.188
	c-354.596,71.075-723.139,107.606-1020.136,67.108c-151.53-20.652-284.531-61.375-387.63-127.762
	c-103.375-66.551-176.725-158.882-208.696-282.586c-19.326-74.791-23.503-161.019-10.023-259.912
	c64.871-475.723,51.934-676.598-246.338-717.267c-232.454-31.699-637.475,32.694-1311.591,139.856
	c-145.673,23.156-303.937,48.321-476.56,75.065C662,2041.175,299.103,1981.831,0,1847.8v-7.446
	c298.637,134.488,661.164,194.259,1100.056,126.26c171.573-26.577,330.376-51.833,476.534-75.065
	c674.731-107.26,1080.113-171.704,1313.502-139.882c304.077,41.461,317.526,244.346,252.024,724.706
	c-13.368,98.036-9.245,183.421,9.861,257.377c31.514,121.949,103.882,212.999,205.882,278.667
	c102.26,65.841,234.333,106.252,384.919,126.781c310.752,42.377,700.2,0.178,1069.847-77.682
	c-353.86,70.761-721.401,107.028-1017.754,66.616c-152.062-20.734-285.449-61.661-388.724-128.465
	c-103.528-66.97-176.8-159.913-208.3-284.479c-18.754-74.174-22.686-159.566-9.357-257.33
	c64.871-475.723,51.934-676.598-246.338-717.267c-232.454-31.699-637.475,32.694-1311.59,139.856
	c-145.673,23.156-303.937,48.321-476.56,75.065C688.678,2027.601,308.939,1956.601,0,1805.282v-7.457
	c308.44,151.816,687.842,223.214,1152.992,151.153c171.573-26.58,330.376-51.835,476.534-75.065
	c674.731-107.262,1080.113-171.707,1313.502-139.884c304.077,41.461,317.525,244.349,252.024,724.706
	c-13.209,96.895-9.332,181.455,9.224,254.847c31.054,122.807,103.336,214.468,205.469,280.534
	c102.408,66.239,234.87,106.85,386.002,127.458c311.748,42.509,702.705-0.115,1073.42-78.452
	c-354.987,71.239-724.062,107.904-1021.418,67.354c-152.568-20.807-286.34-61.949-389.741-129.149
	c-103.669-67.368-176.833-160.908-207.862-286.333c-18.204-73.577-21.896-158.125-8.72-254.774
	c64.871-475.723,51.933-676.596-246.338-717.267c-232.454-31.699-637.475,32.694-1311.591,139.856
	c-145.673,23.156-303.937,48.321-476.56,75.064C714.639,2014.146,318.202,1930.176,0,1760.442v-7.619
	c317.678,170.299,713.761,254.76,1205.928,178.515c171.573-26.579,330.376-51.835,476.534-75.064
	c674.731-107.262,1080.113-171.707,1313.503-139.882c304.077,41.459,317.525,244.347,252.024,724.703
	c-13.064,95.799-9.425,179.525,8.586,252.317c30.588,123.657,102.757,215.897,205.031,282.361
	c102.539,66.637,235.388,107.459,387.019,128.139c310.677,42.363,700.048,0.188,1069.634-77.646
	c-353.807,70.728-721.274,106.974-1017.555,66.576c-153.09-20.873-287.274-62.228-390.823-129.847
	c-103.821-67.785-176.88-161.944-207.435-288.251c-17.653-72.972-21.106-156.67-8.083-252.165
	c64.871-475.723,51.934-676.596-246.338-717.267c-232.454-31.696-637.475,32.694-1311.591,139.856
	c-145.673,23.159-303.937,48.321-476.56,75.064C739.867,2000.797,326.857,1902.561,0,1713.302v-7.769
	c326.299,189.89,738.951,288.715,1258.865,208.166c171.573-26.577,330.376-51.835,476.534-75.064
	c674.731-107.26,1080.113-171.707,1313.502-139.882c304.078,41.459,317.525,244.347,252.024,724.706
	c-12.911,94.669-9.51,177.557,7.949,249.732c30.124,124.534,102.193,217.383,204.605,284.252
	c102.694,67.057,235.948,108.091,388.101,128.837c310.879,42.384,700.54,0.134,1070.332-77.787
	c-354.013,70.822-721.771,107.147-1018.264,66.717c-153.636-20.947-288.226-62.519-391.913-130.552
	c-103.973-68.209-176.92-162.984-206.99-290.196c-17.101-72.335-20.31-155.164-7.446-249.52
	c64.871-475.725,51.934-676.598-246.338-717.267c-232.454-31.699-637.475,32.694-1311.59,139.853
	c-145.673,23.159-303.937,48.321-476.56,75.065C764.315,1987.569,334.839,1873.646,0,1663.746v-7.949
	c334.249,210.609,763.345,325.235,1311.802,240.263c171.573-26.577,330.376-51.833,476.534-75.065
	c674.731-107.26,1080.113-171.707,1313.502-139.881c304.078,41.461,317.526,244.346,252.024,724.706
	c-12.752,93.519-9.584,175.558,7.338,247.142c29.639,125.398,101.59,218.859,204.163,286.147
	c102.836,67.474,236.484,108.722,389.162,129.54c311.622,42.497,702.438-0.073,1073.047-78.365
	c-354.863,71.187-723.744,107.806-1021.008,67.274c-154.159-21.018-289.121-62.804-392.974-131.26
	c-104.106-68.631-176.946-164.036-206.526-292.117c-16.557-71.712-19.537-153.669-6.827-246.877
	c64.871-475.723,51.934-676.598-246.338-717.267c-232.454-31.698-637.476,32.694-1311.591,139.856
	c-145.673,23.157-303.937,48.319-476.56,75.065C787.902,1974.479,342.137,1843.276,0,1611.614v-8.134
	c341.5,232.459,786.881,364.464,1364.738,274.941c171.573-26.577,330.376-51.833,476.534-75.065
	c674.731-107.26,1080.113-171.707,1313.502-139.881c304.077,41.461,317.525,244.346,252.024,724.706
	c-12.6,92.397-9.657,173.572,6.719,244.527c29.161,126.286,101.004,220.372,203.698,288.064
	c102.97,67.879,237.007,109.333,390.226,130.227c310.141,42.284,698.712,0.319,1067.738-77.258
	c-353.207,70.482-719.885,106.531-1015.645,66.199c-154.719-21.093-290.105-63.104-394.099-131.991
	c-104.252-69.062-176.978-165.107-206.048-294.104c-16.011-71.079-18.762-152.153-6.216-244.18
	c64.871-475.723,51.934-676.598-246.338-717.267c-232.454-31.698-637.475,32.694-1311.591,139.856
	c-145.673,23.157-303.937,48.321-476.56,75.065C810.562,1961.528,348.685,1811.312,0,1556.758v-8.34
	c348.001,255.437,809.473,406.588,1417.675,312.364c171.573-26.577,330.376-51.833,476.534-75.065
	c674.731-107.26,1080.113-171.704,1313.502-139.881c304.077,41.461,317.525,244.346,252.024,724.706
	c-12.44,91.242-9.737,171.54,6.11,241.856c28.662,127.178,100.393,221.893,203.244,290.025
	c103.118,68.303,237.566,109.992,391.323,130.955c311.828,42.525,702.93-0.119,1073.729-78.497
	c-355.06,71.271-724.233,107.958-1021.704,67.401c-155.248-21.165-291.028-63.397-395.146-132.696
	c-104.411-69.5-177.006-166.175-205.57-296.074c-15.479-70.416-18.002-150.602-5.611-241.486
	c64.871-475.723,51.934-676.598-246.34-717.267c-232.452-31.698-637.473,32.694-1311.589,139.856
	c-145.673,23.157-303.937,48.321-476.56,75.065C832.205,1948.736,354.444,1777.608,0,1499.028v-8.561
	c353.706,279.55,831.05,451.763,1470.611,352.677c171.573-26.58,330.376-51.835,476.534-75.065
	c674.732-107.262,1080.113-171.707,1313.502-139.884c304.078,41.461,317.526,244.349,252.024,724.706
	c-12.281,90.08-9.795,169.509,5.531,239.213c28.159,128.069,99.756,223.394,202.74,291.943
	c103.249,68.723,238.091,110.622,392.37,131.661c310.712,42.37,700.163,0.166,1069.821-77.688
	c-353.854,70.756-721.401,107.023-1017.754,66.612c-155.78-21.238-291.969-63.688-396.249-133.434
	c-104.544-69.924-177.018-167.237-205.064-298.047c-14.95-69.758-17.252-149.058-5.021-238.775
	c64.871-475.723,51.934-676.596-246.34-717.267c-232.452-31.696-637.473,32.694-1311.588,139.856
	c-145.673,23.159-303.937,48.321-476.56,75.065C852.74,1936.12,359.359,1741.967,0,1438.248v-8.8
	c358.555,304.775,851.506,500.175,1523.547,396.057c171.573-26.577,330.376-51.835,476.534-75.065
	c674.731-107.262,1080.113-171.707,1313.502-139.881c304.078,41.459,317.525,244.346,252.024,724.706
	c-12.122,88.929-9.856,167.475,4.941,236.517c27.652,128.983,99.137,224.955,202.262,293.928
	c103.376,69.149,238.621,111.259,393.445,132.37c310.806,42.384,700.399,0.148,1070.138-77.747
	c-353.959,70.801-721.617,107.101-1018.056,66.677c-156.34-21.31-292.935-63.988-397.353-134.165
	c-104.69-70.367-177.046-168.331-204.561-300.064c-14.429-69.102-16.51-147.5-4.442-236.032
	c64.871-475.725,51.934-676.598-246.341-717.27c-232.452-31.696-637.473,32.694-1311.588,139.856
	c-145.673,23.159-303.937,48.321-476.56,75.065C872.074,1923.687,363.342,1704.198,0,1374.242v-9.046
	c362.48,331.092,870.757,552.003,1576.484,442.67c171.573-26.577,330.376-51.833,476.534-75.065
	c674.731-107.26,1080.113-171.707,1313.502-139.881c304.078,41.461,317.526,244.346,252.024,724.706
	c-11.967,87.774-9.917,165.43,4.363,233.799c27.135,129.901,98.5,226.517,201.756,295.922
	c103.53,69.58,239.181,111.925,394.551,133.102c308.136,42.019,693.685,0.871,1060.567-75.735l0.532-0.246
	c-351.19,69.613-715.165,104.964-1009.074,64.892c-156.881-21.392-293.881-64.281-398.421-134.889
	c-104.817-70.787-177.025-169.408-204.015-302.065c-13.926-68.444-15.793-145.933-3.885-233.295
	c64.871-475.723,51.934-676.598-246.341-717.267c-232.452-31.699-637.473,32.694-1311.588,139.853
	c-145.673,23.159-303.937,48.321-476.56,75.065C890.076,1911.462,366.331,1664.065,0,1306.841v-9.306
	c365.387,358.443,888.675,607.451,1629.421,492.692c171.573-26.577,330.376-51.833,476.534-75.065
	c674.731-107.26,1080.113-171.707,1313.502-139.882c304.075,41.461,317.525,244.347,252.024,724.706
	c-11.808,86.619-9.969,163.371,3.805,231.091c26.61,130.803,97.837,228.057,201.238,297.895
	c103.661,70.011,239.705,112.573,395.594,133.825c300.364,40.955,674.305,2.882,1032.799-70.018l1.27-0.597
	c-342.715,66.066-695.559,98.622-981.936,59.571c-157.43-21.465-294.854-64.585-399.565-135.653
	c-104.976-71.246-177.072-170.531-203.518-304.129c-13.401-67.734-15.062-144.305-3.313-230.5
	c64.871-475.723,51.934-676.598-246.34-717.267c-232.452-31.699-637.473,32.694-1311.588,139.856
	c-145.673,23.156-303.937,48.321-476.56,75.065C906.647,1899.459,368.236,1621.318,0,1235.845v-9.589
	c367.194,386.758,905.138,666.742,1682.357,546.331c171.573-26.577,330.376-51.833,476.534-75.065
	c674.731-107.26,1080.113-171.704,1313.502-139.882c304.075,41.461,317.525,244.347,252.022,724.706
	c-11.646,85.431-10.007,161.286,3.261,228.35c26.08,131.752,97.186,229.668,200.716,299.932
	c103.8,70.449,240.268,113.225,396.734,134.561c292.628,39.901,655.12,4.789,1005.114-64.466l2.622-1.249
	c-334.453,62.706-676.669,92.645-955.751,54.59c-157.966-21.538-295.774-64.875-400.593-136.363
	c-105.095-71.67-177.032-171.585-202.944-306.115c-12.911-67.062-14.378-142.73-2.783-227.757
	c64.871-475.723,51.934-676.598-246.34-717.267c-232.452-31.699-637.475,32.694-1311.588,139.856
	c-145.673,23.156-303.937,48.321-476.56,75.065C921.529,1887.712,368.941,1575.506,0,1160.849v-10.168
	c367.812,416.1,919.79,730.61,1735.294,604.27c171.573-26.58,330.376-51.835,476.534-75.065
	c674.731-107.262,1080.114-171.707,1313.5-139.884c304.077,41.461,317.528,244.349,252.024,724.706
	c-11.494,84.291-10.053,159.255,2.729,225.632c25.549,132.656,96.516,231.198,200.172,301.894
	c103.926,70.873,240.76,113.874,397.735,135.273c285.218,38.889,636.792,6.534,978.479-59.253l3.301-1.567
	c-326.1,59.405-657.837,86.84-929.665,49.781c-158.517-21.615-296.747-65.182-401.701-137.112
	c-105.236-72.115-177.053-172.709-202.415-308.175c-12.427-66.377-13.694-141.13-2.259-224.988
	c64.871-475.723,51.934-676.596-246.341-717.267c-232.452-31.698-637.475,32.694-1311.588,139.856
	c-145.673,23.156-303.937,48.321-476.56,75.064C934.433,1876.277,368.33,1526.09,0,1081.335v-10.494
	c367.081,446.236,932.566,799.032,1788.23,666.47c171.573-26.579,330.376-51.835,476.534-75.064
	c674.731-107.262,1080.111-171.707,1313.5-139.882c304.078,41.459,317.528,244.346,252.024,724.703
	c-11.334,83.147-10.093,157.198,2.205,222.891c25.012,133.593,95.846,232.792,199.64,303.925
	c104.067,71.318,241.325,114.546,398.846,136.023c277.837,37.886,618.655,8.162,951.953-54.225l2.57-1.223l1.966-0.93
	c-317.957,56.244-639.654,81.369-904.482,45.261c-159.028-21.685-297.642-65.468-402.73-137.839
	c-105.344-72.539-177.007-173.757-201.831-310.159c-11.96-65.7-13.031-139.549-1.759-222.239
	c64.871-475.723,51.934-676.596-246.34-717.267c-232.452-31.696-637.476,32.694-1311.588,139.856
	c-145.673,23.159-303.939,48.321-476.56,75.065C945.336,1865.153,366.238,1472.868,0,997.464v-10.838
	c364.858,476.904,943.326,872.145,1841.167,733.046c171.573-26.577,330.376-51.835,476.534-75.064
	c674.731-107.26,1080.111-171.707,1313.5-139.882c304.078,41.459,317.525,244.347,252.024,724.706
	c-11.176,82.004-10.126,155.169,1.708,220.192c24.473,134.496,95.167,234.326,199.081,305.884
	c104.172,71.738,241.809,115.172,399.848,136.721c270.786,36.926,601.361,9.629,926.505-49.516l5.22-2.458
	c-309.808,53.176-621.67,76.088-879.625,40.916c-159.573-21.756-298.583-65.759-403.808-138.56
	c-105.493-72.991-177.018-174.867-201.299-312.186c-11.489-64.984-12.377-137.93-1.253-219.508
	c64.871-475.725,51.934-676.598-246.341-717.267c-232.452-31.698-637.475,32.694-1311.588,139.853
	c-145.673,23.159-303.939,48.321-476.562,75.065C953.857,1854.395,362.505,1415.124,0,908.677v-11.555
	c360.952,508.052,951.508,950.942,1894.103,804.911c171.573-26.577,330.376-51.833,476.534-75.064
	c674.731-107.26,1080.111-171.707,1313.5-139.882c304.078,41.461,317.526,244.346,252.024,724.706
	c-11.023,80.856-10.147,153.137,1.23,217.49c23.941,135.425,94.482,235.891,198.523,307.882
	c104.313,72.169,242.348,115.828,400.923,137.445c263.839,35.981,584.459,10.969,901.539-45.048l6.316-2.943
	c-301.945,50.287-604.488,71.168-855.828,36.9c-160.084-21.831-299.481-66.054-404.811-139.265
	c-105.606-73.404-176.985-175.91-200.72-314.13c-11.051-64.32-11.768-136.395-0.797-216.846
	c64.869-475.723,51.934-676.598-246.34-717.267c-232.452-31.698-637.476,32.694-1311.589,139.856
	c-145.673,23.157-303.939,48.319-476.562,75.065C959.41,1844.093,356.869,1351.774,0,814.102v-11.946
	c355.135,539.204,956.873,1035.643,1947.04,882.238c171.573-26.577,330.376-51.833,476.534-75.065
	c674.731-107.26,1080.111-171.707,1313.5-139.881c304.078,41.461,317.525,244.346,252.024,724.706
	c-10.871,79.752-10.168,151.172,0.771,214.852c23.41,136.311,93.805,237.402,197.973,309.803
	c104.432,72.588,242.833,116.458,401.9,138.148c257.25,35.079,568.514,12.18,877.811-40.922l7.052-3.24
	c-294.261,47.536-587.826,66.504-832.763,33.104c-160.595-21.894-300.364-66.331-405.832-139.973
	c-105.735-73.837-176.973-176.959-200.184-316.065c-10.62-63.662-11.171-134.868-0.352-214.222
	c64.869-475.723,51.934-676.598-246.34-717.267c-232.452-31.699-637.476,32.694-1311.588,139.856
	c-145.673,23.157-303.939,48.321-476.562,75.065C961.722,1834.298,349.065,1282.042,0,713.615v-12.757
	c347.085,569.947,958.752,1127.21,1999.976,965.896c171.573-26.577,330.376-51.833,476.534-75.065
	c674.731-107.26,1080.111-171.704,1313.5-139.882c304.077,41.461,317.525,244.346,252.024,724.706
	c-10.726,78.677-10.187,149.232,0.326,212.256c22.899,137.206,93.156,238.916,197.434,311.736
	c104.544,72.998,243.325,117.076,402.924,138.832c250.902,34.215,553.166,13.289,854.873-37.024l8.347-3.767
	c-287.028,45.001-572.264,62.261-811.22,29.679c-161.054-21.962-301.175-66.591-406.729-140.617
	c-105.833-74.221-176.924-177.929-199.632-317.872c-10.226-63.029-10.627-133.42,0.054-211.739
	c64.868-475.723,51.931-676.598-246.341-717.267c-232.452-31.698-637.476,32.694-1311.588,139.856
	c-145.673,23.157-303.939,48.321-476.562,75.065C960.115,1825.114,338.716,1204.475,0,606.449v-13.642
	c336.446,599.427,956.622,1226.158,2052.913,1056.311c171.573-26.579,330.376-51.835,476.534-75.065
	c674.731-107.262,1080.111-171.706,1313.5-139.884c304.077,41.461,317.526,244.349,252.024,724.706
	c-10.592,77.663-10.208,147.4-0.08,209.801c22.395,138.035,92.512,240.314,196.883,313.514
	c104.631,73.378,243.763,117.653,403.821,139.476c245.036,33.411,539.06,14.226,833.705-33.545l9.132-4.004
	c-280.07,42.621-557.449,58.316-790.711,26.516c-161.539-22.028-302.014-66.848-407.68-141.262
	c-105.932-74.601-176.898-178.885-199.128-319.657c-9.854-62.42-10.114-132.019,0.434-209.356
	c64.868-475.723,51.931-676.595-246.341-717.267c-232.452-31.696-637.476,32.694-1311.588,139.856
	c-145.673,23.157-303.939,48.321-476.562,75.065C953.34,1816.724,325.257,1116.738,0,491.218v-14.439
	c322.64,626.569,949.336,1333.87,2105.847,1154.699c171.576-26.577,330.378-51.835,476.534-75.065
	c674.734-107.262,1080.113-171.707,1313.503-139.881c304.078,41.459,317.525,244.346,252.024,724.706
	c-10.458,76.711-10.215,145.677-0.457,207.468c21.915,138.818,91.912,241.664,196.403,315.248
	c104.75,73.762,244.227,118.231,404.744,140.121c239.532,32.661,525.851,15.074,813.798-30.363l4.655-1.987h0.012l5.965-2.523
	c-273.822,40.538-544.207,54.876-772.416,23.757c-161.93-22.077-302.684-67.064-408.437-141.803
	c-106.019-74.931-176.873-179.715-198.661-321.185c-9.524-61.856-9.657-130.763,0.769-207.248
	c64.871-475.725,51.934-676.598-246.338-717.269c-232.452-31.696-637.475,32.694-1311.588,139.856
	c-145.673,23.159-303.939,48.321-476.562,75.065C940.25,1809.314,307.983,1016.092,0,367.088v-15.659
	c304.881,649.508,935.363,1451.949,2158.783,1262.411c171.573-26.577,330.378-51.833,476.534-75.065
	c674.733-107.26,1080.113-171.707,1313.502-139.882c304.077,41.461,317.526,244.346,252.024,724.706
	c-10.334,75.814-10.208,144.099-0.771,205.39c21.491,139.516,91.356,242.852,195.913,316.747
	c104.838,74.09,244.6,118.723,405.501,140.66c234.75,32.01,514.495,15.746,796.676-27.699l8.095-3.315l0.014-0.012l3.638-1.476
	c-268.328,38.725-532.638,51.922-756.377,21.411c-162.27-22.128-303.274-67.261-409.1-142.285
	c-106.091-75.21-176.84-180.399-198.258-322.466c-9.256-61.404-9.282-129.714,1.042-205.469
	c64.871-475.723,51.934-676.598-246.338-717.267c-232.452-31.699-637.476,32.694-1311.588,139.854
	c-145.673,23.159-303.939,48.321-476.562,75.065C918.401,1803.258,285.707,897.561,0,232.028v-16.775
	C282.015,880.195,912.584,1797.473,2211.72,1596.2c171.573-26.577,330.378-51.833,476.534-75.065
	c674.734-107.26,1080.113-171.707,1313.502-139.882c304.077,41.461,317.525,244.347,252.024,724.706
	c-10.241,75.09-10.215,142.784-1.042,203.609c21.125,140.127,90.897,243.883,195.536,318.057
	c104.896,74.362,244.883,119.129,406.136,141.119c230.772,31.464,505.025,16.276,782.327-25.509
	c4.648-1.806,9.111-3.528,13.347-5.135c-263.931,37.312-523.4,49.603-743.592,19.586c-162.509-22.161-303.7-67.394-409.58-142.618
	c-106.152-75.416-176.826-180.919-197.984-323.41c-9.071-61.078-9.024-128.976,1.228-204.214
	c64.871-475.723,51.933-676.598-246.338-717.267c-232.452-31.699-637.476,32.694-1311.589,139.856
	c-145.673,23.157-303.939,48.321-476.562,75.065C884.552,1799.066,256.701,753.469,0,84.157V65.541
	c252.031,666.702,876.895,1728.02,2264.656,1513.02c171.573-26.577,330.376-51.833,476.534-75.065
	c674.734-107.26,1080.113-171.704,1313.503-139.882c304.077,41.461,317.525,244.347,252.024,724.706
	c-10.168,74.594-10.215,141.88-1.228,202.382c20.873,140.54,90.572,244.599,195.262,318.973
	c104.95,74.561,245.136,119.429,406.617,141.449c228.015,31.087,498.47,16.636,772.369-24.021l10.817-3.844h0.014l4.995-1.741
	c-261.363,36.495-518.028,48.27-736.13,18.537c-162.553-22.161-303.77-67.408-409.669-142.679
	c-106.159-75.449-176.821-181.01-197.933-323.581c-9.039-61.019-8.98-128.844,1.26-203.989
	c64.871-475.723,51.934-676.598-246.338-717.267c-232.452-31.699-637.476,32.694-1311.588,139.856
	c-145.673,23.157-303.939,48.321-476.562,75.065C890.781,1788.667,268.049,663.694,28.173,0H35.199z"/>
</svg>
